<svg xmlns="http://www.w3.org/2000/svg" viewBox="0 0 940 700" width="940" font-family="sans-serif" font-size="14">
  <rect x="0" y="0" width="940" height="700" fill="#ffffff"/>

  <text x="470" y="30" text-anchor="middle" font-weight="bold" fill="#1e293b">ER 図 — リワードまわりのデータの繋がり</text>

  <!-- ===================== common ===================== -->
  <rect x="30" y="55" width="460" height="280" rx="8" fill="none" stroke="#cbd5e1" stroke-dasharray="6 4"/>
  <text x="46" y="76" font-size="11" font-weight="bold" fill="#64748b">common（本部が管理する定義）</text>

  <!-- 商品（左） -->
  <rect x="50" y="90" width="150" height="84" rx="6" fill="#f8fafc" stroke="#94a3b8"/>
  <rect x="50" y="90" width="150" height="34" rx="6" fill="#94a3b8"/>
  <text x="64" y="106" font-size="12" font-weight="bold" fill="#ffffff">商品</text>
  <text x="64" y="119" font-size="9" fill="#e2e8f0">MenuItem</text>
  <text x="188" y="106" text-anchor="end" font-size="10" fill="#ffffff">既存</text>
  <text x="64" y="146" font-size="11" fill="#334155">商品 ID</text>
  <text x="64" y="165" font-size="11" fill="#334155">商品名 / 価格</text>

  <!-- 商品 1 : * リワード（横に並べ、多重度を隙間の両端に表記） -->
  <path d="M200,132 H230" fill="none" stroke="#7c3aed" stroke-width="1.6"/>
  <text x="207" y="122" text-anchor="middle" font-size="11" font-weight="bold" fill="#5b21b6">1</text>
  <text x="222" y="122" text-anchor="middle" font-size="11" font-weight="bold" fill="#5b21b6">*</text>

  <!-- リワード（右） -->
  <rect x="230" y="90" width="240" height="130" rx="6" fill="#f0fdf4" stroke="#16a34a"/>
  <rect x="230" y="90" width="240" height="34" rx="6" fill="#16a34a"/>
  <text x="244" y="106" font-size="12" font-weight="bold" fill="#ffffff">リワード</text>
  <text x="244" y="119" font-size="9" fill="#dcfce7">Reward</text>
  <text x="458" y="106" text-anchor="end" font-size="10" fill="#ffffff">今回追加</text>
  <text x="244" y="146" font-size="10.5" fill="#334155">リワード ID / 名称 / 配布期間</text>
  <text x="244" y="165" font-size="10.5" fill="#334155">必要スタンプ数 / 発行上限</text>
  <text x="244" y="184" font-size="10.5" fill="#334155">カードの有効期間 / 特典の延長期間</text>
  <text x="244" y="203" font-size="10.5" fill="#334155">対象商品 ID / 特典の種類 / 割引額</text>

  <!-- ===================== 既存（udb / shop / sales） ===================== -->
  <rect x="60" y="380" width="230" height="66" rx="6" fill="#f8fafc" stroke="#94a3b8"/>
  <rect x="60" y="380" width="230" height="34" rx="6" fill="#94a3b8"/>
  <text x="74" y="396" font-size="12" font-weight="bold" fill="#ffffff">会員</text>
  <text x="74" y="409" font-size="9" fill="#e2e8f0">User</text>
  <text x="278" y="396" text-anchor="end" font-size="10" fill="#ffffff">既存</text>
  <text x="74" y="433" font-size="11" fill="#334155">会員 ID / 公開用識別子</text>

  <rect x="60" y="490" width="230" height="66" rx="6" fill="#f8fafc" stroke="#94a3b8"/>
  <rect x="60" y="490" width="230" height="34" rx="6" fill="#94a3b8"/>
  <text x="74" y="506" font-size="12" font-weight="bold" fill="#ffffff">店舗</text>
  <text x="74" y="519" font-size="9" fill="#e2e8f0">Shop</text>
  <text x="278" y="506" text-anchor="end" font-size="10" fill="#ffffff">既存</text>
  <text x="74" y="543" font-size="11" fill="#334155">店舗 ID / 店名</text>

  <rect x="60" y="600" width="230" height="66" rx="6" fill="#f8fafc" stroke="#94a3b8"/>
  <rect x="60" y="600" width="230" height="34" rx="6" fill="#94a3b8"/>
  <text x="74" y="616" font-size="12" font-weight="bold" fill="#ffffff">注文</text>
  <text x="74" y="629" font-size="9" fill="#e2e8f0">Order</text>
  <text x="278" y="616" text-anchor="end" font-size="10" fill="#ffffff">既存</text>
  <text x="74" y="653" font-size="11" fill="#334155">注文 ID / 状態</text>

  <!-- ===================== sales（今回追加） ===================== -->
  <rect x="520" y="200" width="390" height="410" rx="8" fill="none" stroke="#cbd5e1" stroke-dasharray="6 4"/>
  <text x="536" y="221" font-size="11" font-weight="bold" fill="#64748b">sales（会員の注文まわり）</text>

  <!-- ユーザーリワードカード -->
  <rect x="545" y="235" width="345" height="150" rx="6" fill="#f0fdf4" stroke="#16a34a"/>
  <rect x="545" y="235" width="345" height="34" rx="6" fill="#16a34a"/>
  <text x="559" y="251" font-size="12" font-weight="bold" fill="#ffffff">ユーザーリワードカード</text>
  <text x="559" y="264" font-size="9" fill="#dcfce7">UserRewardCard</text>
  <text x="878" y="251" text-anchor="end" font-size="10" fill="#ffffff">今回追加</text>
  <text x="559" y="290" font-size="11" fill="#334155">ユーザーリワードカード ID</text>
  <text x="559" y="310" font-size="11" fill="#334155">会員 ID / リワード ID</text>
  <text x="559" y="330" font-size="11" fill="#334155">有効期限 / 中断日</text>
  <text x="559" y="350" font-size="10.5" fill="#334155">状態（収集中 / 特典獲得 / 使用済み / 期限切れ）</text>
  <text x="559" y="370" font-size="11" fill="#334155">使った注文 ID / 使用日時</text>

  <!-- スタンプ -->
  <rect x="545" y="440" width="345" height="105" rx="6" fill="#f0fdf4" stroke="#16a34a"/>
  <rect x="545" y="440" width="345" height="34" rx="6" fill="#16a34a"/>
  <text x="559" y="456" font-size="12" font-weight="bold" fill="#ffffff">スタンプ</text>
  <text x="559" y="469" font-size="9" fill="#dcfce7">UserRewardCardStamp</text>
  <text x="878" y="456" text-anchor="end" font-size="10" fill="#ffffff">今回追加</text>
  <text x="559" y="496" font-size="11" fill="#334155">スタンプ ID</text>
  <text x="559" y="516" font-size="11" fill="#334155">ユーザーリワードカード ID / 注文 ID</text>
  <text x="559" y="536" font-size="11" fill="#334155">店舗 ID（付与日時は createdAt）</text>

  <!-- ===================== relations ===================== -->
  <!-- Reward 1:* UserRewardCard（リワードの右端から） -->
  <path d="M470,155 H505 V290 H541" fill="none" stroke="#7c3aed" stroke-width="1.6"/>
  <text x="501" y="150" text-anchor="end" font-size="12" font-weight="bold" fill="#5b21b6">1 : *</text>

  <!-- User 1:* UserRewardCard -->
  <path d="M290,413 H440 V330 H541" fill="none" stroke="#7c3aed" stroke-width="1.6"/>
  <text x="436" y="407" text-anchor="end" font-size="12" font-weight="bold" fill="#5b21b6">1 : *</text>

  <!-- UserRewardCard 1:* Stamp -->
  <path d="M717,385 V440" fill="none" stroke="#7c3aed" stroke-width="1.6"/>
  <text x="729" y="418" font-size="12" font-weight="bold" fill="#5b21b6">1 : *</text>

  <!-- Shop 1:* Stamp -->
  <path d="M290,523 H400 V536 H541" fill="none" stroke="#7c3aed" stroke-width="1.6"/>
  <text x="396" y="517" text-anchor="end" font-size="12" font-weight="bold" fill="#5b21b6">1 : *</text>

  <!-- Order 1:1 Stamp -->
  <path d="M290,633 H470 V516 H541" fill="none" stroke="#7c3aed" stroke-width="1.6"/>
  <text x="466" y="627" text-anchor="end" font-size="12" font-weight="bold" fill="#5b21b6">1 : 1</text>

  <!-- ===================== 対象外 ===================== -->
  <rect x="545" y="570" width="345" height="48" rx="6" fill="#ffffff" stroke="#cbd5e1" stroke-dasharray="5 4"/>
  <text x="559" y="588" font-size="10.5" fill="#64748b">データを持たないもの … 有効スタンプ数（件数を数える）</text>
  <text x="559" y="606" font-size="10.5" fill="#64748b">特典の有効期限（カードの有効期限 ＋ 延長期間）</text>

  <!-- ===================== note ===================== -->
  <rect x="330" y="650" width="580" height="30" rx="8" fill="#fffbeb" stroke="#d97706"/>
  <text x="348" y="669" font-size="10.5" fill="#92400e">既存モデルへの属性追加はない。参照は sales → common の一方向。</text>
</svg>
